<svg viewBox="0 0 33.867 33.867" xmlns="http://www.w3.org/2000/svg"><path d="M25.345 3.135l-3.91 2.092-1.547-.091-1.06-1.213-1.334 1.273s-7.517.782-7.851 1.577c-.055.58-.311.968-.703 1.144-.45.203-1.068.088-1.707-.379 0 0-3.486 1.516-4.016 3.206 6.426 5.638 5.031 13.065 5.031 13.065s-2.213-1.789-5.365-2.607c4.183 3.516 3.91 5.91 3.729 6.82.181.607 2.182 1.395 5 2.546.213-1.667 1.426-2.273 2.426-3.091-.424 1-.273.848-.424 3 2.819.698 5.638-.181 7.032-.909.091-.94-1.758-2.819-3.304-4.244.758-.212 1.789.183 2.94 1.122.061-1.394.82-1.94 2.062-3.85-.364 2.062.424 3.76 1.212 5.457.334-.03.819.03 2.82-3.668-4.153-4.638-4.002-9.216-4.002-9.216l8.61-5.274s-.213-.273-3.032.09c1.091-3.637-.273-3.91-.273-3.91-2.03 6.427-2.455 5.396-5.275 6.275-.697-3.516 2.94-9.215 2.94-9.215zm-8.3 3.981c1.433 0 2.97.123 4.602.414-.306 2.211-1.896 3.004-4.107 4.032-1.651.768-5.156.488-5.156.488l.502 3.18s-2.667-2.182-3.06-3.91c-2.343.202-3.275.424-5.185-.637 0 0 4.672-3.57 12.404-3.567zM6.374 18.471c-.086 1.029.085 1.157-.558 1.93 0 0 1.33 1.028 1.544 1.371.214-1.114.128-2.7-.986-3.301z"/></svg>